<svg xmlns="http://www.w3.org/2000/svg" xmlns:xlink="http://www.w3.org/1999/xlink" width="20" height="20" viewBox="0 0 20 20">
  <defs>
    <style>
      .cls-1 {
        fill: #bdc3c7;
        fill-rule: evenodd;
        opacity: 0.7;
        filter: url(#filter);
      }
    </style>
    <filter id="filter" x="1071" y="535" width="20" height="20" filterUnits="userSpaceOnUse">
      <feFlood result="flood" flood-color="#b7bacd"/>
      <feComposite result="composite" operator="in" in2="SourceGraphic"/>
      <feBlend result="blend" in2="SourceGraphic"/>
    </filter>
  </defs>
  <path id="basket" class="cls-1" d="M1090.95,542.765l0.02,0.006-2.5,11.25-0.02-.006a1.236,1.236,0,0,1-1.2.984h-12.5a1.236,1.236,0,0,1-1.2-.984l-0.02.006-2.5-11.25,0.02-.006a1.171,1.171,0,0,1-.05-0.265,1.25,1.25,0,0,1,1.25-1.25h2.5a6.25,6.25,0,1,1,12.5,0h2.5a1.25,1.25,0,0,1,1.25,1.25A1.171,1.171,0,0,1,1090.95,542.765ZM1081,537.5a3.751,3.751,0,0,0-3.75,3.751h7.5A3.751,3.751,0,0,0,1081,537.5Zm5,8.751a1.251,1.251,0,0,1-1.25-1.251V543.75h-7.5V545a1.25,1.25,0,1,1-2.5,0V543.75h-0.94l1.94,8.749h10.5l1.94-8.749h-0.94V545A1.251,1.251,0,0,1,1086,546.25Z" transform="translate(-1071 -535)"/>
</svg>
