<svg id="logo.svg" xmlns="http://www.w3.org/2000/svg" width="69" height="71" viewBox="0 0 69 71">
  <defs>
    <style>
      .cls-1, .cls-2 {
        fill: none;
        stroke-width: 2px;
      }

      .cls-1 {
        stroke: #fff;
      }

      .cls-1, .cls-2, .cls-3 {
        fill-rule: evenodd;
      }

      .cls-2 {
        stroke: #f6f7fc;
      }

      .cls-3, .cls-4 {
        fill: #fff;
      }
    </style>
  </defs>
  <path class="cls-1" d="M1358.67,708.857l-28.81-55-28.81,55h57.62Z" transform="translate(-1295 -640)"/>
  <path class="cls-2" d="M1329.5,641a33.216,33.216,0,1,1-33.5,33.214A33.359,33.359,0,0,1,1329.5,641Z" transform="translate(-1295 -640)"/>
  <path id="Ellipse_1_copy_8" data-name="Ellipse 1 copy 8" class="cls-3" d="M1329.86,703.857a3.572,3.572,0,1,1-3.6,3.572A3.585,3.585,0,0,1,1329.86,703.857Z" transform="translate(-1295 -640)"/>
  <circle id="Ellipse_1_copy_9" data-name="Ellipse 1 copy 9" class="cls-4" cx="61.52" cy="67.422" r="3.61"/>
  <path id="Ellipse_1_copy_11" data-name="Ellipse 1 copy 11" class="cls-3" d="M1301.04,703.857a3.572,3.572,0,1,1-3.6,3.572A3.593,3.593,0,0,1,1301.04,703.857Z" transform="translate(-1295 -640)"/>
</svg>
