<svg xmlns="http://www.w3.org/2000/svg" width="79.97" height="83.03" viewBox="0 0 79.97 83.03">
  <defs>
    <style>
      .cls-1 {
        fill: #3c3c3c;
        fill-rule: evenodd;
      }
    </style>
  </defs>
  <path class="cls-1" d="M1362.96,2790.99h-11.93a2.014,2.014,0,0,0-2.02,2.02v4.17h-48.15v-4.17a2.014,2.014,0,0,0-2.02-2.02h-11.82a2.014,2.014,0,0,0-2.02,2.02v12.27a2.014,2.014,0,0,0,2.02,2.02h11.93a2.014,2.014,0,0,0,2.02-2.02v-4.17h22.16c-0.22,4.95-12.26,28.24-19.91,41.97a2.08,2.08,0,0,0,.45,2.47c6.86,5.85,8.55,11.59,9,14.52h-2.59a2.014,2.014,0,0,0-2.02,2.02v9.9a2.017,2.017,0,0,0,2.02,2.03h29.93a2.017,2.017,0,0,0,2.02-2.03v-9.9a2.014,2.014,0,0,0-2.02-2.02h-2.59c0.45-2.93,2.14-8.67,9-14.52a2.052,2.052,0,0,0,.45-2.47c-7.65-13.73-19.69-37.13-19.91-41.97h22.05v4.17a2.014,2.014,0,0,0,2.02,2.02h11.93a2.014,2.014,0,0,0,2.02-2.02v-12.27A2.014,2.014,0,0,0,1362.96,2790.99Zm-66.04,12.26h-7.98v-8.32h7.98v8.32Zm28.13,32.97a2.585,2.585,0,1,1-2.59,2.58A2.691,2.691,0,0,1,1325.05,2836.22Zm13.05,33.64h-25.99v-5.97h25.99v5.97Zm-4.62-9.91h-16.87c-0.45-3.26-2.14-9.78-9.22-16.42,2.69-4.95,10.79-19.8,15.63-30.83v19.92a6.436,6.436,0,0,0-4.5,6.18,6.525,6.525,0,1,0,8.55-6.18v-20.03c4.95,11.03,12.94,25.88,15.64,30.94C1335.62,2850.17,1333.93,2856.69,1333.48,2859.95Zm27.56-56.7h-7.98v-8.21h7.98v8.21Z" transform="translate(-1285 -2791)"/>
</svg>
