<svg xmlns="http://www.w3.org/2000/svg" width="79" height="76" viewBox="0 0 79 76">
  <defs>
    <style>
      .cls-1 {
        fill: #3c3c3c;
        fill-rule: evenodd;
      }
    </style>
  </defs>
  <path class="cls-1" d="M1362.92,3242h-74.84a2.089,2.089,0,0,1-2.08-2.1v-60.92a2.089,2.089,0,0,1,2.08-2.1h74.84a2.089,2.089,0,0,1,2.08,2.1v60.92A2.089,2.089,0,0,1,1362.92,3242Zm-72.76-4.2h70.68v-56.72h-70.68v56.72Zm72.76-56.72h-74.84a2.089,2.089,0,0,1-2.08-2.1v-10.89a2.089,2.089,0,0,1,2.08-2.1h74.84a2.089,2.089,0,0,1,2.08,2.1v10.89A2.089,2.089,0,0,1,1362.92,3181.08Zm-72.76-4.2h70.68v-6.69h-70.68v6.69Zm5.02-4.81a1.47,1.47,0,1,1-1.45,1.47A1.462,1.462,0,0,1,1295.18,3172.07Zm4.35,0a1.465,1.465,0,1,1-1.45,1.47A1.462,1.462,0,0,1,1299.53,3172.07Zm4.35,0a1.47,1.47,0,1,1-1.45,1.47A1.47,1.47,0,0,1,1303.88,3172.07Zm11.16,43.11a1.788,1.788,0,0,1-1.28-.54l-5.66-5.71a1.853,1.853,0,0,1,0-2.6l5.65-5.71a1.817,1.817,0,0,1,2.57,0,1.853,1.853,0,0,1,0,2.6l-4.36,4.41,4.37,4.41a1.853,1.853,0,0,1,0,2.6A1.793,1.793,0,0,1,1315.04,3215.18Zm20.92,0a1.788,1.788,0,0,1-1.28-.54,1.853,1.853,0,0,1,0-2.6l4.36-4.4-4.37-4.42a1.853,1.853,0,0,1,0-2.6,1.817,1.817,0,0,1,2.57,0l5.66,5.72a1.847,1.847,0,0,1,0,2.59l-5.65,5.71A1.81,1.81,0,0,1,1335.96,3215.18Zm-13.07,4.24a1.74,1.74,0,0,1-.45-0.06,1.835,1.835,0,0,1-1.31-2.23l4.62-18.28a1.82,1.82,0,0,1,2.21-1.33,1.839,1.839,0,0,1,1.32,2.24l-4.63,18.28A1.821,1.821,0,0,1,1322.89,3219.42Z" transform="translate(-1286 -3166)"/>
</svg>
