<svg xmlns="http://www.w3.org/2000/svg" width="54.126" height="54.12" viewBox="0 0 54.126 54.12">
  <defs>
    <style>
      .cls-1 {
        fill: #262626;
        fill-rule: evenodd;
      }
    </style>
  </defs>
  <path id="icon" class="cls-1" d="M1009,2633.9a1.2,1.2,0,0,0,.48-2.15c-1.45-1.06-3.32-2.1-4.72-1.79l2.91-7.22a1.2,1.2,0,0,0-1.56-1.56l-7.227,2.9c0.312-1.4-.733-3.26-1.789-4.71a1.2,1.2,0,0,0-2.148.48,39.19,39.19,0,0,1-2.634,7.89,12.74,12.74,0,0,1,2.172,1.75l4.873,4.87a12.772,12.772,0,0,1,1.753,2.17A39.217,39.217,0,0,1,1009,2633.9Zm-11.27,2.09-4.872-4.88a10.734,10.734,0,0,0-16.946,2.34l-5.352,9.51,5.808,9.57-8.347-5.06-11.773,20.94a3.081,3.081,0,0,0,2.658,4.59,3.147,3.147,0,0,0,1.518-.41l9.151-5.14-3.072-5.7,6.745,3.64,18.806-10.57-5.161-9.01,10.279,5.89A10.749,10.749,0,0,0,997.73,2635.99Z" transform="translate(-955.844 -2618.88)"/>
</svg>
